<svg xmlns="http://www.w3.org/2000/svg" xmlns:xlink="http://www.w3.org/1999/xlink" viewBox="0 0 900 210"><defs><style>.a{clip-path:url(#b);}.b{fill:#fff;}.c{fill:#5f5f5f;}</style><clipPath id="b"><rect width="900" height="210"/></clipPath></defs><g id="a" class="a"><path class="b" d="M1.47-.98H9.24V-48.86H1.47v-.98H16.45L40.11-11.69h.14V-48.86H32.48v-.98H49.07v.98H41.3V.98H39.9L10.43-45.99h-.14V-.98h7.77V0H1.47ZM69.65-50.26l1.4.42L52.15.42,50.75,0ZM72.73-.98H80.5V-48.86H72.73v-.98H87.71l23.66,38.15h.14V-48.86h-7.77v-.98h16.59v.98h-7.77V.98h-1.4L81.69-45.99h-.14V-.98h7.77V0H72.73Zm51.17,0h7.77V-48.86H123.9v-.98h40.04v12.11h-.77a35.141,35.141,0,0,0-1.96-4.8,13.2,13.2,0,0,0-2.52-3.5,9.258,9.258,0,0,0-3.5-2.135,15.111,15.111,0,0,0-4.9-.7H138.67v21.63h4.55a15.744,15.744,0,0,0,3.92-.42,5.969,5.969,0,0,0,2.765-1.575,9.335,9.335,0,0,0,1.96-3.15,38.6,38.6,0,0,0,1.575-5.145h.77v21.77h-.77q-.49-2.03-1.015-3.92a12.217,12.217,0,0,0-1.47-3.36,6.959,6.959,0,0,0-2.52-2.345,8.393,8.393,0,0,0-4.1-.875h-5.67V-.98H151.9a11.61,11.61,0,0,0,6.4-1.645,14.914,14.914,0,0,0,4.165-3.92,16.98,16.98,0,0,0,2.38-4.725,24.838,24.838,0,0,0,.98-4.06h.77V0H123.9Zm53.41-31.15a23.975,23.975,0,0,0,3.325-2.835,15.25,15.25,0,0,0,2.03-2.59,8.34,8.34,0,0,0,.98-2.205,7.1,7.1,0,0,0,.245-1.68,5.234,5.234,0,0,0-1.26-3.64,3.535,3.535,0,0,1-3.01,1.75,4.181,4.181,0,0,1-2.59-.98,3.338,3.338,0,0,1-1.26-2.8,3.779,3.779,0,0,1,1.225-2.8,4.2,4.2,0,0,1,3.045-1.19,4.721,4.721,0,0,1,2.415.63,6.466,6.466,0,0,1,1.855,1.61,6.716,6.716,0,0,1,1.155,2.31,9.526,9.526,0,0,1,.385,2.66,10.292,10.292,0,0,1-.84,4.025,19.269,19.269,0,0,1-2.03,3.675,17.682,17.682,0,0,1-2.59,2.94,22.318,22.318,0,0,1-2.45,1.96ZM190.61-9.8h.77a26.215,26.215,0,0,0,1.26,3.4,12.044,12.044,0,0,0,2.065,3.15A10.178,10.178,0,0,0,197.89-.91a10.41,10.41,0,0,0,4.55.91,6.313,6.313,0,0,0,3.99-1.365,5.293,5.293,0,0,0,1.75-4.445,4.525,4.525,0,0,0-1.365-3.745,10.686,10.686,0,0,0-3.185-1.715l-5.46-1.89q-1.05-.35-2.275-.875a8.247,8.247,0,0,1-2.275-1.47A7.169,7.169,0,0,1,191.9-17.92a9.224,9.224,0,0,1-.665-3.78,8.631,8.631,0,0,1,.77-3.64,9.414,9.414,0,0,1,2.1-2.94,9.388,9.388,0,0,1,3.185-1.96,11.31,11.31,0,0,1,4.025-.7,10.222,10.222,0,0,1,2.485.245q.945.245,1.645.49t1.26.49a3.3,3.3,0,0,0,1.33.245,1.222,1.222,0,0,0,1.12-.56h.77v7.98h-.77a30.093,30.093,0,0,0-1.12-2.975,11.891,11.891,0,0,0-1.505-2.555,6.1,6.1,0,0,0-2.17-1.75,6.889,6.889,0,0,0-3.045-.63,8.072,8.072,0,0,0-5.215,1.505,4.918,4.918,0,0,0-1.855,4.025,3.944,3.944,0,0,0,1.575,3.4A16.509,16.509,0,0,0,200.48-18.9l5.11,1.68a14.731,14.731,0,0,1,5.39,3.08,6.752,6.752,0,0,1,2.1,5.18,9.827,9.827,0,0,1-.735,3.71,9,9,0,0,1-2.17,3.185,11.057,11.057,0,0,1-3.5,2.205,12.458,12.458,0,0,1-4.725.84,11.987,11.987,0,0,1-2.835-.315Q197.82.35,196.735,0T194.74-.665a5.166,5.166,0,0,0-1.68-.315,1.647,1.647,0,0,0-1.12.315,2.928,2.928,0,0,0-.56.665h-.77Zm62.23-15.26a27.852,27.852,0,0,0,2.94.42q1.54.14,2.73.14,5.18,0,8.085-3.045t2.9-9.2a21.436,21.436,0,0,0-.7-5.95,8.427,8.427,0,0,0-2.2-3.815,8.243,8.243,0,0,0-3.92-2,25.882,25.882,0,0,0-5.775-.56q-1.33,0-2.415.07t-1.645.14ZM238.07-.98h7.77V-48.86h-7.77v-.98h13.16q.98,0,1.96-.035t1.96-.1q.98,0,1.925-.035T259-50.05a27.463,27.463,0,0,1,7.385.945,18.942,18.942,0,0,1,5.88,2.695,13.023,13.023,0,0,1,3.885,4.2,10.808,10.808,0,0,1,1.4,5.46,9.966,9.966,0,0,1-1.61,5.6,13.9,13.9,0,0,1-4.27,4.13,21.613,21.613,0,0,1-6.2,2.59,29.51,29.51,0,0,1-7.385.91,23.214,23.214,0,0,1-2.52-.175q-1.54-.175-2.73-.385V-.98h7.77V0H238.07Zm47.81-14a32.424,32.424,0,0,0,.77,7.91,12.165,12.165,0,0,0,2.03,4.515A5.848,5.848,0,0,0,291.62-.49a12.691,12.691,0,0,0,3.57.49,12.691,12.691,0,0,0,3.57-.49,5.848,5.848,0,0,0,2.94-2.065,12.165,12.165,0,0,0,2.03-4.515,32.424,32.424,0,0,0,.77-7.91,37.121,37.121,0,0,0-.56-7.035,13.188,13.188,0,0,0-1.715-4.62,6.618,6.618,0,0,0-2.9-2.555,10.192,10.192,0,0,0-4.13-.77,10.192,10.192,0,0,0-4.13.77,6.618,6.618,0,0,0-2.9,2.555,13.188,13.188,0,0,0-1.715,4.62A37.121,37.121,0,0,0,285.88-14.98Zm-7,0a13.776,13.776,0,0,1,1.505-6.37,17.7,17.7,0,0,1,3.85-5.075,17.723,17.723,0,0,1,5.25-3.325,14.981,14.981,0,0,1,5.7-1.19,14.981,14.981,0,0,1,5.705,1.19,17.723,17.723,0,0,1,5.25,3.325,17.7,17.7,0,0,1,3.85,5.075,13.776,13.776,0,0,1,1.505,6.37,14.087,14.087,0,0,1-1.4,6.2,17.365,17.365,0,0,1-3.675,5.075A17.445,17.445,0,0,1,301.21-.28,15.144,15.144,0,0,1,295.19.98a15.144,15.144,0,0,1-6.02-1.26,17.445,17.445,0,0,1-5.215-3.43,17.365,17.365,0,0,1-3.675-5.075A14.087,14.087,0,0,1,278.88-14.98Zm37.66,14h5.39V-29.05h-5.39v-.98h11.27v7.07h.14a14.252,14.252,0,0,1,.91-2.38,10.392,10.392,0,0,1,1.75-2.555,9.967,9.967,0,0,1,2.7-2.065,8.013,8.013,0,0,1,3.815-.84,6.892,6.892,0,0,1,2.8.525,6.049,6.049,0,0,1,1.96,1.33A4.89,4.89,0,0,1,343-27.09a6.606,6.606,0,0,1,.35,2.1q0,2.31-1.05,3.08a4.031,4.031,0,0,1-2.45.77q-3.08,0-3.08-1.96a3.034,3.034,0,0,1,.14-1.015q.14-.385.315-.77a6.306,6.306,0,0,0,.315-.875,5.376,5.376,0,0,0,.14-1.4q0-2.24-2.45-2.24a4.338,4.338,0,0,0-2.38.84,8.776,8.776,0,0,0-2.345,2.45,15.393,15.393,0,0,0-1.82,3.885,16.955,16.955,0,0,0-.735,5.215V-.98h6.09V0h-17.5Zm27.79-29.05h5.39v-9.03q.56.21,1.05.35a6.919,6.919,0,0,0,1.68.14,6.027,6.027,0,0,0,1.82-.245,4.567,4.567,0,0,0,1.47-.805v9.59h9.94v.98h-9.94V-6.16a10.876,10.876,0,0,0,.385,3.185,4.81,4.81,0,0,0,1.015,1.89,3.038,3.038,0,0,0,1.365.875A5.211,5.211,0,0,0,359.94,0,4.921,4.921,0,0,0,363.9-1.785a8.645,8.645,0,0,0,1.925-4.1l.98.35a16.284,16.284,0,0,1-.63,2.03,7.079,7.079,0,0,1-1.3,2.135A6.8,6.8,0,0,1,362.6.315a8.143,8.143,0,0,1-3.5.665q-5.25,0-7.315-2.03a7.686,7.686,0,0,1-2.065-5.74V-29.05h-5.39ZM368.41-.98h5.39V-29.05h-5.39v-.98h5.39v-3.71a31.644,31.644,0,0,1,.245-4.235,20.052,20.052,0,0,1,.665-3.15,12.607,12.607,0,0,1,.98-2.38,11.765,11.765,0,0,1,1.26-1.855,17.719,17.719,0,0,1,4.55-4.025,10.738,10.738,0,0,1,5.81-1.715,10.546,10.546,0,0,1,3.955.665,8.659,8.659,0,0,1,2.7,1.645,6.288,6.288,0,0,1,1.54,2.135,5.376,5.376,0,0,1,.49,2.065,4.234,4.234,0,0,1-.77,2.45,2.916,2.916,0,0,1-2.59,1.12,6.131,6.131,0,0,1-2.065-.42,1.733,1.733,0,0,1-1.155-1.82,3.621,3.621,0,0,1,.665-2.135,3.621,3.621,0,0,0,.665-2.135,2.022,2.022,0,0,0-1.26-2.065,6.674,6.674,0,0,0-2.59-.525,6.3,6.3,0,0,0-4.97,2.52q-2.1,2.52-2.1,7.84v9.73h8.68v.98h-8.68V-.98h6.37V0H368.41Zm30.8-14a32.424,32.424,0,0,0,.77,7.91,12.165,12.165,0,0,0,2.03,4.515A5.848,5.848,0,0,0,404.95-.49a12.691,12.691,0,0,0,3.57.49,12.691,12.691,0,0,0,3.57-.49,5.848,5.848,0,0,0,2.94-2.065,12.165,12.165,0,0,0,2.03-4.515,32.424,32.424,0,0,0,.77-7.91,37.121,37.121,0,0,0-.56-7.035,13.188,13.188,0,0,0-1.715-4.62,6.618,6.618,0,0,0-2.9-2.555,10.192,10.192,0,0,0-4.13-.77,10.192,10.192,0,0,0-4.13.77,6.618,6.618,0,0,0-2.9,2.555,13.188,13.188,0,0,0-1.715,4.62A37.121,37.121,0,0,0,399.21-14.98Zm-7,0a13.776,13.776,0,0,1,1.505-6.37,17.7,17.7,0,0,1,3.85-5.075,17.723,17.723,0,0,1,5.25-3.325,14.981,14.981,0,0,1,5.7-1.19,14.981,14.981,0,0,1,5.705,1.19,17.723,17.723,0,0,1,5.25,3.325,17.7,17.7,0,0,1,3.85,5.075,13.776,13.776,0,0,1,1.5,6.37,14.087,14.087,0,0,1-1.4,6.2,17.365,17.365,0,0,1-3.675,5.075A17.445,17.445,0,0,1,414.54-.28,15.144,15.144,0,0,1,408.52.98,15.144,15.144,0,0,1,402.5-.28a17.445,17.445,0,0,1-5.215-3.43,17.365,17.365,0,0,1-3.675-5.075A14.087,14.087,0,0,1,392.21-14.98Zm37.73,14h5.39V-49.49h-5.39v-.98h11.41V-.98h5.39V0h-16.8Zm25.27-45.36a3.576,3.576,0,0,1,1.085-2.625,3.576,3.576,0,0,1,2.625-1.085,3.576,3.576,0,0,1,2.625,1.085,3.576,3.576,0,0,1,1.085,2.625,3.576,3.576,0,0,1-1.085,2.625,3.576,3.576,0,0,1-2.625,1.085,3.576,3.576,0,0,1-2.625-1.085A3.576,3.576,0,0,1,455.21-46.34ZM450.66-.98h5.39V-29.05h-5.39v-.98h11.41V-.98h5.39V0h-16.8Zm28.91-14a32.424,32.424,0,0,0,.77,7.91,12.165,12.165,0,0,0,2.03,4.515A5.848,5.848,0,0,0,485.31-.49a12.691,12.691,0,0,0,3.57.49,12.691,12.691,0,0,0,3.57-.49,5.848,5.848,0,0,0,2.94-2.065,12.165,12.165,0,0,0,2.03-4.515,32.424,32.424,0,0,0,.77-7.91,37.121,37.121,0,0,0-.56-7.035,13.188,13.188,0,0,0-1.715-4.62,6.618,6.618,0,0,0-2.9-2.555,10.192,10.192,0,0,0-4.13-.77,10.192,10.192,0,0,0-4.13.77,6.618,6.618,0,0,0-2.9,2.555,13.188,13.188,0,0,0-1.715,4.62A37.121,37.121,0,0,0,479.57-14.98Zm-7,0a13.776,13.776,0,0,1,1.505-6.37,17.7,17.7,0,0,1,3.85-5.075,17.723,17.723,0,0,1,5.25-3.325,14.981,14.981,0,0,1,5.7-1.19,14.981,14.981,0,0,1,5.705,1.19,17.723,17.723,0,0,1,5.25,3.325,17.7,17.7,0,0,1,3.85,5.075,13.776,13.776,0,0,1,1.505,6.37,14.087,14.087,0,0,1-1.4,6.2,17.365,17.365,0,0,1-3.675,5.075A17.445,17.445,0,0,1,494.9-.28,15.144,15.144,0,0,1,488.88.98a15.144,15.144,0,0,1-6.02-1.26,17.445,17.445,0,0,1-5.215-3.43,17.365,17.365,0,0,1-3.675-5.075A14.087,14.087,0,0,1,472.57-14.98ZM520.8-49.84h21.07v.98h-7.28l14.42,40.6h.14l9.31-25.83-5.32-14.77h-5.88v-.98h21v.98h-7.63l14.42,40.6h.14l14.7-40.6H582.4v-.98h14.98v.98h-6.3L572.95,1.05H571.2l-12.04-33.6h-.14L546.84,1.05h-1.89L527.1-48.86h-6.3Zm93.52,31.5a12.926,12.926,0,0,0,.14-1.82v-1.75a14.118,14.118,0,0,0-.455-3.92,6.374,6.374,0,0,0-1.26-2.45,4.452,4.452,0,0,0-1.96-1.3,7.81,7.81,0,0,0-2.485-.385,7.389,7.389,0,0,0-3.92.945,6.961,6.961,0,0,0-2.45,2.555,13.163,13.163,0,0,0-1.365,3.71,29.129,29.129,0,0,0-.6,4.41Zm-14.42.98q0,.7-.035,1.435t-.035,1.855a43.787,43.787,0,0,0,.28,4.83,14.509,14.509,0,0,0,1.225,4.55,8.48,8.48,0,0,0,2.8,3.36A8.3,8.3,0,0,0,609.07,0a12.269,12.269,0,0,0,5.075-.91,9.339,9.339,0,0,0,3.15-2.2A9.548,9.548,0,0,0,619.01-5.74q.56-1.33.84-2.17l1.05.21a20.109,20.109,0,0,1-.805,2.2,10.141,10.141,0,0,1-1.89,2.87,11.46,11.46,0,0,1-3.5,2.52A12.95,12.95,0,0,1,609,.98a18.234,18.234,0,0,1-6.475-1.12,14.8,14.8,0,0,1-5.145-3.22,14.55,14.55,0,0,1-3.36-5,16.934,16.934,0,0,1-1.19-6.475,15.261,15.261,0,0,1,1.225-5.985,16.914,16.914,0,0,1,3.36-5.145,16.835,16.835,0,0,1,5.005-3.605,14.159,14.159,0,0,1,6.16-1.365,14.118,14.118,0,0,1,4.2.7,12.367,12.367,0,0,1,4.165,2.275,12.5,12.5,0,0,1,3.22,4.165,14.326,14.326,0,0,1,1.295,6.44Zm55.65,1.33a42.876,42.876,0,0,0-.35-5.775,14.7,14.7,0,0,0-1.225-4.375,6.54,6.54,0,0,0-2.45-2.8,7.507,7.507,0,0,0-4.025-.98,8.907,8.907,0,0,0-4.27.91,8.281,8.281,0,0,0-2.73,2.31,8.667,8.667,0,0,0-1.225,2.1,13.558,13.558,0,0,0-.735,2.66,28.249,28.249,0,0,0-.385,3.535q-.105,1.995-.1,4.725a33.651,33.651,0,0,0,.35,4.76,14.746,14.746,0,0,0,1.33,4.445,8.508,8.508,0,0,0,2.765,3.255A8.032,8.032,0,0,0,647.22,0a8.1,8.1,0,0,0,4.55-1.12,6.758,6.758,0,0,0,2.52-3.22,16.924,16.924,0,0,0,1.05-5.075Q655.55-12.39,655.55-16.03ZM626.64-.98h5.39V-49.49h-5.39v-.98h11.41v26.04h.14a10.235,10.235,0,0,1,3.36-4.62,9.721,9.721,0,0,1,6.23-1.89,12.785,12.785,0,0,1,5.67,1.3,16.209,16.209,0,0,1,4.69,3.43,16.174,16.174,0,0,1,3.22,5,15.564,15.564,0,0,1,1.19,6.02,15.6,15.6,0,0,1-1.225,6.125A17.26,17.26,0,0,1,658-3.92a16.294,16.294,0,0,1-4.865,3.57A13.316,13.316,0,0,1,647.29.98a9.1,9.1,0,0,1-4.025-.805,9.673,9.673,0,0,1-2.73-1.925,8.63,8.63,0,0,1-1.645-2.31,19.157,19.157,0,0,1-.84-2.03h-.14V0H626.64ZM670.11-9.8h.77a26.21,26.21,0,0,0,1.26,3.4,12.043,12.043,0,0,0,2.065,3.15A10.178,10.178,0,0,0,677.39-.91a10.41,10.41,0,0,0,4.55.91,6.313,6.313,0,0,0,3.99-1.365,5.293,5.293,0,0,0,1.75-4.445,4.525,4.525,0,0,0-1.365-3.745,10.686,10.686,0,0,0-3.185-1.715l-5.46-1.89q-1.05-.35-2.275-.875a8.247,8.247,0,0,1-2.275-1.47,7.168,7.168,0,0,1-1.715-2.415,9.223,9.223,0,0,1-.665-3.78,8.63,8.63,0,0,1,.77-3.64,9.415,9.415,0,0,1,2.1-2.94,9.389,9.389,0,0,1,3.185-1.96,11.31,11.31,0,0,1,4.025-.7,10.222,10.222,0,0,1,2.485.245q.945.245,1.645.49t1.26.49a3.3,3.3,0,0,0,1.33.245,1.222,1.222,0,0,0,1.12-.56h.77v7.98h-.77a30.109,30.109,0,0,0-1.12-2.975,11.888,11.888,0,0,0-1.505-2.555,6.1,6.1,0,0,0-2.17-1.75,6.889,6.889,0,0,0-3.045-.63,8.072,8.072,0,0,0-5.215,1.505,4.918,4.918,0,0,0-1.855,4.025,3.944,3.944,0,0,0,1.575,3.4A16.509,16.509,0,0,0,679.98-18.9l5.11,1.68a14.73,14.73,0,0,1,5.39,3.08,6.752,6.752,0,0,1,2.1,5.18,9.826,9.826,0,0,1-.735,3.71,9,9,0,0,1-2.17,3.185,11.057,11.057,0,0,1-3.5,2.205,12.458,12.458,0,0,1-4.725.84,11.988,11.988,0,0,1-2.835-.315Q677.32.35,676.235,0T674.24-.665a5.166,5.166,0,0,0-1.68-.315,1.647,1.647,0,0,0-1.12.315,2.928,2.928,0,0,0-.56.665h-.77Zm32.41-36.54a3.576,3.576,0,0,1,1.085-2.625,3.576,3.576,0,0,1,2.625-1.085,3.576,3.576,0,0,1,2.625,1.085,3.576,3.576,0,0,1,1.085,2.625,3.576,3.576,0,0,1-1.085,2.625,3.576,3.576,0,0,1-2.625,1.085,3.576,3.576,0,0,1-2.625-1.085A3.576,3.576,0,0,1,702.52-46.34ZM697.97-.98h5.39V-29.05h-5.39v-.98h11.41V-.98h5.39V0h-16.8Zm19.95-29.05h5.39v-9.03q.56.21,1.05.35a6.919,6.919,0,0,0,1.68.14,6.027,6.027,0,0,0,1.82-.245,4.566,4.566,0,0,0,1.47-.805v9.59h9.94v.98h-9.94V-6.16a10.876,10.876,0,0,0,.385,3.185,4.81,4.81,0,0,0,1.015,1.89,3.037,3.037,0,0,0,1.365.875A5.21,5.21,0,0,0,733.53,0a4.921,4.921,0,0,0,3.955-1.785,8.644,8.644,0,0,0,1.925-4.1l.98.35a16.282,16.282,0,0,1-.63,2.03,7.081,7.081,0,0,1-1.3,2.135A6.8,6.8,0,0,1,736.19.315a8.144,8.144,0,0,1-3.5.665q-5.25,0-7.315-2.03a7.686,7.686,0,0,1-2.065-5.74V-29.05h-5.39Zm46.76,11.69a12.926,12.926,0,0,0,.14-1.82v-1.75a14.118,14.118,0,0,0-.455-3.92,6.374,6.374,0,0,0-1.26-2.45,4.452,4.452,0,0,0-1.96-1.3,7.81,7.81,0,0,0-2.485-.385,7.389,7.389,0,0,0-3.92.945,6.961,6.961,0,0,0-2.45,2.555,13.163,13.163,0,0,0-1.365,3.71,29.129,29.129,0,0,0-.6,4.41Zm-14.42.98q0,.7-.035,1.435t-.035,1.855a43.787,43.787,0,0,0,.28,4.83A14.509,14.509,0,0,0,751.7-4.69a8.48,8.48,0,0,0,2.8,3.36A8.3,8.3,0,0,0,759.43,0a12.269,12.269,0,0,0,5.075-.91,9.339,9.339,0,0,0,3.15-2.2A9.548,9.548,0,0,0,769.37-5.74q.56-1.33.84-2.17l1.05.21a20.109,20.109,0,0,1-.805,2.2,10.141,10.141,0,0,1-1.89,2.87,11.46,11.46,0,0,1-3.5,2.52A12.95,12.95,0,0,1,759.36.98a18.234,18.234,0,0,1-6.475-1.12,14.8,14.8,0,0,1-5.145-3.22,14.55,14.55,0,0,1-3.36-5,16.934,16.934,0,0,1-1.19-6.475,15.261,15.261,0,0,1,1.225-5.985,16.914,16.914,0,0,1,3.36-5.145,16.835,16.835,0,0,1,5.005-3.605,14.159,14.159,0,0,1,6.16-1.365,14.118,14.118,0,0,1,4.2.7,12.367,12.367,0,0,1,4.165,2.275,12.5,12.5,0,0,1,3.22,4.165,14.326,14.326,0,0,1,1.295,6.44Z" transform="translate(65 196)"/><path class="b" d="M45.36-83.58,29.96-42.84h30.8ZM-.14-1.96H12.18L49.98-102.2h3.36L91.42-1.96h12.46V0H60.76V-1.96H76.3L61.6-40.88H29.12L14.42-1.96H29.96V0H-.14Zm107.8,0h10.78V-58.1H107.66v-1.96h10.78v-7.42a63.286,63.286,0,0,1,.49-8.47,40.106,40.106,0,0,1,1.33-6.3,25.214,25.214,0,0,1,1.96-4.76,23.532,23.532,0,0,1,2.52-3.71,35.436,35.436,0,0,1,9.1-8.05,21.476,21.476,0,0,1,11.62-3.43,21.092,21.092,0,0,1,7.91,1.33,17.316,17.316,0,0,1,5.39,3.29,12.575,12.575,0,0,1,3.08,4.27,10.752,10.752,0,0,1,.98,4.13,8.469,8.469,0,0,1-1.54,4.9q-1.54,2.24-5.18,2.24a12.261,12.261,0,0,1-4.13-.84,3.466,3.466,0,0,1-2.31-3.64,7.242,7.242,0,0,1,1.33-4.27,7.242,7.242,0,0,0,1.33-4.27,4.043,4.043,0,0,0-2.52-4.13,13.347,13.347,0,0,0-5.18-1.05q-5.74,0-9.94,5.04t-4.2,15.68v19.46h17.36v1.96H130.48V-1.96h12.74V0H107.66Zm45.08-58.1h10.78V-78.12q1.12.42,2.1.7a13.838,13.838,0,0,0,3.36.28,12.054,12.054,0,0,0,3.64-.49,9.135,9.135,0,0,0,2.94-1.61v19.18h19.88v1.96H175.56v45.78a21.751,21.751,0,0,0,.77,6.37,9.62,9.62,0,0,0,2.03,3.78,6.075,6.075,0,0,0,2.73,1.75,10.421,10.421,0,0,0,2.87.42,9.843,9.843,0,0,0,7.91-3.57,17.289,17.289,0,0,0,3.85-8.19l1.96.7A32.567,32.567,0,0,1,196.42-7a14.159,14.159,0,0,1-2.59,4.27A13.607,13.607,0,0,1,189.28.63a16.287,16.287,0,0,1-7,1.33q-10.5,0-14.63-4.06t-4.13-11.48V-58.1H152.74Zm93.52,23.38a25.849,25.849,0,0,0,.28-3.64v-3.5a28.238,28.238,0,0,0-.91-7.84,12.748,12.748,0,0,0-2.52-4.9,8.9,8.9,0,0,0-3.92-2.59,15.621,15.621,0,0,0-4.97-.77,14.778,14.778,0,0,0-7.84,1.89,13.923,13.923,0,0,0-4.9,5.11,26.322,26.322,0,0,0-2.73,7.42,58.262,58.262,0,0,0-1.19,8.82Zm-28.84,1.96q0,1.4-.07,2.87t-.07,3.71a87.563,87.563,0,0,0,.56,9.66,29.017,29.017,0,0,0,2.45,9.1,16.961,16.961,0,0,0,5.6,6.72Q229.6,0,235.76,0a24.538,24.538,0,0,0,10.15-1.82,18.68,18.68,0,0,0,6.3-4.41,19.1,19.1,0,0,0,3.43-5.25q1.12-2.66,1.68-4.34l2.1.42a40.206,40.206,0,0,1-1.61,4.41,20.283,20.283,0,0,1-3.78,5.74,22.92,22.92,0,0,1-7,5.04,25.9,25.9,0,0,1-11.41,2.17A36.468,36.468,0,0,1,222.67-.28a29.6,29.6,0,0,1-10.29-6.44,29.1,29.1,0,0,1-6.72-10.01,33.869,33.869,0,0,1-2.38-12.95,30.522,30.522,0,0,1,2.45-11.97,33.83,33.83,0,0,1,6.72-10.29,33.67,33.67,0,0,1,10.01-7.21,28.318,28.318,0,0,1,12.32-2.73,28.235,28.235,0,0,1,8.4,1.4,24.735,24.735,0,0,1,8.33,4.55,25.005,25.005,0,0,1,6.44,8.33,28.652,28.652,0,0,1,2.59,12.88ZM270.76-1.96h10.78V-58.1H270.76v-1.96H293.3v14.14h.28a28.5,28.5,0,0,1,1.82-4.76,20.783,20.783,0,0,1,3.5-5.11,19.933,19.933,0,0,1,5.39-4.13,16.026,16.026,0,0,1,7.63-1.68,13.783,13.783,0,0,1,5.6,1.05,12.1,12.1,0,0,1,3.92,2.66,9.779,9.779,0,0,1,2.24,3.71,13.213,13.213,0,0,1,.7,4.2q0,4.62-2.1,6.16a8.063,8.063,0,0,1-4.9,1.54q-6.16,0-6.16-3.92a6.069,6.069,0,0,1,.28-2.03q.28-.77.63-1.54a12.616,12.616,0,0,0,.63-1.75,10.753,10.753,0,0,0,.28-2.8q0-4.48-4.9-4.48a8.677,8.677,0,0,0-4.76,1.68,17.552,17.552,0,0,0-4.69,4.9,30.79,30.79,0,0,0-3.64,7.77,33.911,33.911,0,0,0-1.47,10.43V-1.96h12.18V0h-35Zm78.12-97.72h42.14v1.96H376.46l28.84,81.2h.28L424.2-68.18,413.56-97.72H401.8v-1.96h42v1.96H428.54l28.84,81.2h.28l29.4-81.2H472.08v-1.96h29.96v1.96h-12.6L453.18,2.1h-3.5L425.6-65.1h-.28L400.96,2.1h-3.78l-35.7-99.82h-12.6ZM506.94-29.96a64.849,64.849,0,0,0,1.54,15.82,24.33,24.33,0,0,0,4.06,9.03,11.7,11.7,0,0,0,5.88,4.13,25.381,25.381,0,0,0,7.14.98,25.381,25.381,0,0,0,7.14-.98,11.7,11.7,0,0,0,5.88-4.13,24.331,24.331,0,0,0,4.06-9.03,64.849,64.849,0,0,0,1.54-15.82,74.242,74.242,0,0,0-1.12-14.07,26.375,26.375,0,0,0-3.43-9.24,13.236,13.236,0,0,0-5.81-5.11,20.385,20.385,0,0,0-8.26-1.54,20.385,20.385,0,0,0-8.26,1.54,13.236,13.236,0,0,0-5.81,5.11,26.375,26.375,0,0,0-3.43,9.24A74.239,74.239,0,0,0,506.94-29.96Zm-14,0a27.552,27.552,0,0,1,3.01-12.74,35.4,35.4,0,0,1,7.7-10.15,35.446,35.446,0,0,1,10.5-6.65,29.962,29.962,0,0,1,11.41-2.38,29.962,29.962,0,0,1,11.41,2.38,35.446,35.446,0,0,1,10.5,6.65,35.4,35.4,0,0,1,7.7,10.15,27.553,27.553,0,0,1,3.01,12.74,28.173,28.173,0,0,1-2.8,12.39,34.729,34.729,0,0,1-7.35,10.15A34.891,34.891,0,0,1,537.6-.56a30.288,30.288,0,0,1-12.04,2.52A30.288,30.288,0,0,1,513.52-.56a34.89,34.89,0,0,1-10.43-6.86,34.729,34.729,0,0,1-7.35-10.15A28.173,28.173,0,0,1,492.94-29.96Zm75.32,28h10.78V-58.1H568.26v-1.96H590.8v14.14h.28a28.5,28.5,0,0,1,1.82-4.76,20.784,20.784,0,0,1,3.5-5.11,19.933,19.933,0,0,1,5.39-4.13,16.026,16.026,0,0,1,7.63-1.68,13.783,13.783,0,0,1,5.6,1.05,12.1,12.1,0,0,1,3.92,2.66,9.779,9.779,0,0,1,2.24,3.71,13.212,13.212,0,0,1,.7,4.2q0,4.62-2.1,6.16a8.063,8.063,0,0,1-4.9,1.54q-6.16,0-6.16-3.92a6.068,6.068,0,0,1,.28-2.03q.28-.77.63-1.54a12.62,12.62,0,0,0,.63-1.75,10.754,10.754,0,0,0,.28-2.8q0-4.48-4.9-4.48a8.676,8.676,0,0,0-4.76,1.68,17.551,17.551,0,0,0-4.69,4.9,30.787,30.787,0,0,0-3.64,7.77,33.91,33.91,0,0,0-1.47,10.43V-1.96h12.18V0h-35Zm57.12,0h10.78V-98.98H625.38v-1.96H648.2v66.92h1.54L677.6-58.1h-9.94v-1.96h21.7v1.96h-8.4L659.12-39.34,690.06-1.96h6.02V0h-31.5V-1.96h9.94l-24.78-30.1H648.2v30.1h7.7V0H625.38Zm79.1-17.64h1.54a52.429,52.429,0,0,0,2.52,6.79,24.087,24.087,0,0,0,4.13,6.3,20.355,20.355,0,0,0,6.37,4.69A20.819,20.819,0,0,0,728.14,0a12.626,12.626,0,0,0,7.98-2.73q3.5-2.73,3.5-8.89,0-5.32-2.73-7.49a21.371,21.371,0,0,0-6.37-3.43L719.6-26.32q-2.1-.7-4.55-1.75a16.5,16.5,0,0,1-4.55-2.94,14.338,14.338,0,0,1-3.43-4.83,18.447,18.447,0,0,1-1.33-7.56,17.261,17.261,0,0,1,1.54-7.28,18.827,18.827,0,0,1,4.2-5.88,18.777,18.777,0,0,1,6.37-3.92,22.619,22.619,0,0,1,8.05-1.4,20.443,20.443,0,0,1,4.97.49q1.89.49,3.29.98t2.52.98a6.6,6.6,0,0,0,2.66.49,2.444,2.444,0,0,0,2.24-1.12h1.54V-44.1h-1.54a60.171,60.171,0,0,0-2.24-5.95,23.781,23.781,0,0,0-3.01-5.11,12.208,12.208,0,0,0-4.34-3.5,13.777,13.777,0,0,0-6.09-1.26q-6.72,0-10.43,3.01a9.836,9.836,0,0,0-3.71,8.05,7.888,7.888,0,0,0,3.15,6.79,33.017,33.017,0,0,0,9.31,4.27l10.22,3.36a29.462,29.462,0,0,1,10.78,6.16,13.5,13.5,0,0,1,4.2,10.36,19.654,19.654,0,0,1-1.47,7.42,18,18,0,0,1-4.34,6.37,22.113,22.113,0,0,1-7,4.41,24.915,24.915,0,0,1-9.45,1.68,23.975,23.975,0,0,1-5.67-.63Q718.9.7,716.73,0t-3.99-1.33a10.332,10.332,0,0,0-3.36-.63,3.294,3.294,0,0,0-2.24.63A5.854,5.854,0,0,0,706.02,0h-1.54ZM763.42-5.88a7.151,7.151,0,0,1,2.17-5.25,7.151,7.151,0,0,1,5.25-2.17,7.152,7.152,0,0,1,5.25,2.17,7.151,7.151,0,0,1,2.17,5.25,7.152,7.152,0,0,1-2.17,5.25,7.152,7.152,0,0,1-5.25,2.17,7.151,7.151,0,0,1-5.25-2.17A7.151,7.151,0,0,1,763.42-5.88Z" transform="translate(57 121)"/><path class="c" d="M45.36-83.58,29.96-42.84h30.8ZM-.14-1.96H12.18L49.98-102.2h3.36L91.42-1.96h12.46V0H60.76V-1.96H76.3L61.6-40.88H29.12L14.42-1.96H29.96V0H-.14Zm107.8,0h10.78V-58.1H107.66v-1.96h10.78v-7.42a63.286,63.286,0,0,1,.49-8.47,40.106,40.106,0,0,1,1.33-6.3,25.214,25.214,0,0,1,1.96-4.76,23.532,23.532,0,0,1,2.52-3.71,35.436,35.436,0,0,1,9.1-8.05,21.476,21.476,0,0,1,11.62-3.43,21.092,21.092,0,0,1,7.91,1.33,17.316,17.316,0,0,1,5.39,3.29,12.575,12.575,0,0,1,3.08,4.27,10.752,10.752,0,0,1,.98,4.13,8.469,8.469,0,0,1-1.54,4.9q-1.54,2.24-5.18,2.24a12.261,12.261,0,0,1-4.13-.84,3.466,3.466,0,0,1-2.31-3.64,7.242,7.242,0,0,1,1.33-4.27,7.242,7.242,0,0,0,1.33-4.27,4.043,4.043,0,0,0-2.52-4.13,13.347,13.347,0,0,0-5.18-1.05q-5.74,0-9.94,5.04t-4.2,15.68v19.46h17.36v1.96H130.48V-1.96h12.74V0H107.66Zm45.08-58.1h10.78V-78.12q1.12.42,2.1.7a13.838,13.838,0,0,0,3.36.28,12.054,12.054,0,0,0,3.64-.49,9.135,9.135,0,0,0,2.94-1.61v19.18h19.88v1.96H175.56v45.78a21.751,21.751,0,0,0,.77,6.37,9.62,9.62,0,0,0,2.03,3.78,6.075,6.075,0,0,0,2.73,1.75,10.421,10.421,0,0,0,2.87.42,9.843,9.843,0,0,0,7.91-3.57,17.289,17.289,0,0,0,3.85-8.19l1.96.7A32.567,32.567,0,0,1,196.42-7a14.159,14.159,0,0,1-2.59,4.27A13.607,13.607,0,0,1,189.28.63a16.287,16.287,0,0,1-7,1.33q-10.5,0-14.63-4.06t-4.13-11.48V-58.1H152.74Zm93.52,23.38a25.849,25.849,0,0,0,.28-3.64v-3.5a28.238,28.238,0,0,0-.91-7.84,12.748,12.748,0,0,0-2.52-4.9,8.9,8.9,0,0,0-3.92-2.59,15.621,15.621,0,0,0-4.97-.77,14.778,14.778,0,0,0-7.84,1.89,13.923,13.923,0,0,0-4.9,5.11,26.322,26.322,0,0,0-2.73,7.42,58.262,58.262,0,0,0-1.19,8.82Zm-28.84,1.96q0,1.4-.07,2.87t-.07,3.71a87.563,87.563,0,0,0,.56,9.66,29.017,29.017,0,0,0,2.45,9.1,16.961,16.961,0,0,0,5.6,6.72Q229.6,0,235.76,0a24.538,24.538,0,0,0,10.15-1.82,18.68,18.68,0,0,0,6.3-4.41,19.1,19.1,0,0,0,3.43-5.25q1.12-2.66,1.68-4.34l2.1.42a40.206,40.206,0,0,1-1.61,4.41,20.283,20.283,0,0,1-3.78,5.74,22.92,22.92,0,0,1-7,5.04,25.9,25.9,0,0,1-11.41,2.17A36.468,36.468,0,0,1,222.67-.28a29.6,29.6,0,0,1-10.29-6.44,29.1,29.1,0,0,1-6.72-10.01,33.869,33.869,0,0,1-2.38-12.95,30.522,30.522,0,0,1,2.45-11.97,33.83,33.83,0,0,1,6.72-10.29,33.67,33.67,0,0,1,10.01-7.21,28.318,28.318,0,0,1,12.32-2.73,28.235,28.235,0,0,1,8.4,1.4,24.735,24.735,0,0,1,8.33,4.55,25.005,25.005,0,0,1,6.44,8.33,28.652,28.652,0,0,1,2.59,12.88ZM270.76-1.96h10.78V-58.1H270.76v-1.96H293.3v14.14h.28a28.5,28.5,0,0,1,1.82-4.76,20.783,20.783,0,0,1,3.5-5.11,19.933,19.933,0,0,1,5.39-4.13,16.026,16.026,0,0,1,7.63-1.68,13.783,13.783,0,0,1,5.6,1.05,12.1,12.1,0,0,1,3.92,2.66,9.779,9.779,0,0,1,2.24,3.71,13.213,13.213,0,0,1,.7,4.2q0,4.62-2.1,6.16a8.063,8.063,0,0,1-4.9,1.54q-6.16,0-6.16-3.92a6.069,6.069,0,0,1,.28-2.03q.28-.77.63-1.54a12.616,12.616,0,0,0,.63-1.75,10.753,10.753,0,0,0,.28-2.8q0-4.48-4.9-4.48a8.677,8.677,0,0,0-4.76,1.68,17.552,17.552,0,0,0-4.69,4.9,30.79,30.79,0,0,0-3.64,7.77,33.911,33.911,0,0,0-1.47,10.43V-1.96h12.18V0h-35Zm78.12-97.72h42.14v1.96H376.46l28.84,81.2h.28L424.2-68.18,413.56-97.72H401.8v-1.96h42v1.96H428.54l28.84,81.2h.28l29.4-81.2H472.08v-1.96h29.96v1.96h-12.6L453.18,2.1h-3.5L425.6-65.1h-.28L400.96,2.1h-3.78l-35.7-99.82h-12.6ZM506.94-29.96a64.849,64.849,0,0,0,1.54,15.82,24.33,24.33,0,0,0,4.06,9.03,11.7,11.7,0,0,0,5.88,4.13,25.381,25.381,0,0,0,7.14.98,25.381,25.381,0,0,0,7.14-.98,11.7,11.7,0,0,0,5.88-4.13,24.331,24.331,0,0,0,4.06-9.03,64.849,64.849,0,0,0,1.54-15.82,74.242,74.242,0,0,0-1.12-14.07,26.375,26.375,0,0,0-3.43-9.24,13.236,13.236,0,0,0-5.81-5.11,20.385,20.385,0,0,0-8.26-1.54,20.385,20.385,0,0,0-8.26,1.54,13.236,13.236,0,0,0-5.81,5.11,26.375,26.375,0,0,0-3.43,9.24A74.239,74.239,0,0,0,506.94-29.96Zm-14,0a27.552,27.552,0,0,1,3.01-12.74,35.4,35.4,0,0,1,7.7-10.15,35.446,35.446,0,0,1,10.5-6.65,29.962,29.962,0,0,1,11.41-2.38,29.962,29.962,0,0,1,11.41,2.38,35.446,35.446,0,0,1,10.5,6.65,35.4,35.4,0,0,1,7.7,10.15,27.553,27.553,0,0,1,3.01,12.74,28.173,28.173,0,0,1-2.8,12.39,34.729,34.729,0,0,1-7.35,10.15A34.891,34.891,0,0,1,537.6-.56a30.288,30.288,0,0,1-12.04,2.52A30.288,30.288,0,0,1,513.52-.56a34.89,34.89,0,0,1-10.43-6.86,34.729,34.729,0,0,1-7.35-10.15A28.173,28.173,0,0,1,492.94-29.96Zm75.32,28h10.78V-58.1H568.26v-1.96H590.8v14.14h.28a28.5,28.5,0,0,1,1.82-4.76,20.784,20.784,0,0,1,3.5-5.11,19.933,19.933,0,0,1,5.39-4.13,16.026,16.026,0,0,1,7.63-1.68,13.783,13.783,0,0,1,5.6,1.05,12.1,12.1,0,0,1,3.92,2.66,9.779,9.779,0,0,1,2.24,3.71,13.212,13.212,0,0,1,.7,4.2q0,4.62-2.1,6.16a8.063,8.063,0,0,1-4.9,1.54q-6.16,0-6.16-3.92a6.068,6.068,0,0,1,.28-2.03q.28-.77.63-1.54a12.62,12.62,0,0,0,.63-1.75,10.754,10.754,0,0,0,.28-2.8q0-4.48-4.9-4.48a8.676,8.676,0,0,0-4.76,1.68,17.551,17.551,0,0,0-4.69,4.9,30.787,30.787,0,0,0-3.64,7.77,33.91,33.91,0,0,0-1.47,10.43V-1.96h12.18V0h-35Zm57.12,0h10.78V-98.98H625.38v-1.96H648.2v66.92h1.54L677.6-58.1h-9.94v-1.96h21.7v1.96h-8.4L659.12-39.34,690.06-1.96h6.02V0h-31.5V-1.96h9.94l-24.78-30.1H648.2v30.1h7.7V0H625.38Zm79.1-17.64h1.54a52.429,52.429,0,0,0,2.52,6.79,24.087,24.087,0,0,0,4.13,6.3,20.355,20.355,0,0,0,6.37,4.69A20.819,20.819,0,0,0,728.14,0a12.626,12.626,0,0,0,7.98-2.73q3.5-2.73,3.5-8.89,0-5.32-2.73-7.49a21.371,21.371,0,0,0-6.37-3.43L719.6-26.32q-2.1-.7-4.55-1.75a16.5,16.5,0,0,1-4.55-2.94,14.338,14.338,0,0,1-3.43-4.83,18.447,18.447,0,0,1-1.33-7.56,17.261,17.261,0,0,1,1.54-7.28,18.827,18.827,0,0,1,4.2-5.88,18.777,18.777,0,0,1,6.37-3.92,22.619,22.619,0,0,1,8.05-1.4,20.443,20.443,0,0,1,4.97.49q1.89.49,3.29.98t2.52.98a6.6,6.6,0,0,0,2.66.49,2.444,2.444,0,0,0,2.24-1.12h1.54V-44.1h-1.54a60.171,60.171,0,0,0-2.24-5.95,23.781,23.781,0,0,0-3.01-5.11,12.208,12.208,0,0,0-4.34-3.5,13.777,13.777,0,0,0-6.09-1.26q-6.72,0-10.43,3.01a9.836,9.836,0,0,0-3.71,8.05,7.888,7.888,0,0,0,3.15,6.79,33.017,33.017,0,0,0,9.31,4.27l10.22,3.36a29.462,29.462,0,0,1,10.78,6.16,13.5,13.5,0,0,1,4.2,10.36,19.654,19.654,0,0,1-1.47,7.42,18,18,0,0,1-4.34,6.37,22.113,22.113,0,0,1-7,4.41,24.915,24.915,0,0,1-9.45,1.68,23.975,23.975,0,0,1-5.67-.63Q718.9.7,716.73,0t-3.99-1.33a10.332,10.332,0,0,0-3.36-.63,3.294,3.294,0,0,0-2.24.63A5.854,5.854,0,0,0,706.02,0h-1.54ZM763.42-5.88a7.151,7.151,0,0,1,2.17-5.25,7.151,7.151,0,0,1,5.25-2.17,7.152,7.152,0,0,1,5.25,2.17,7.151,7.151,0,0,1,2.17,5.25,7.152,7.152,0,0,1-2.17,5.25,7.152,7.152,0,0,1-5.25,2.17,7.151,7.151,0,0,1-5.25-2.17A7.151,7.151,0,0,1,763.42-5.88Z" transform="translate(55 119)"/><path class="c" d="M1.47-.98H9.24V-48.86H1.47v-.98H16.45L40.11-11.69h.14V-48.86H32.48v-.98H49.07v.98H41.3V.98H39.9L10.43-45.99h-.14V-.98h7.77V0H1.47ZM69.65-50.26l1.4.42L52.15.42,50.75,0ZM72.73-.98H80.5V-48.86H72.73v-.98H87.71l23.66,38.15h.14V-48.86h-7.77v-.98h16.59v.98h-7.77V.98h-1.4L81.69-45.99h-.14V-.98h7.77V0H72.73Zm51.17,0h7.77V-48.86H123.9v-.98h40.04v12.11h-.77a35.141,35.141,0,0,0-1.96-4.8,13.2,13.2,0,0,0-2.52-3.5,9.258,9.258,0,0,0-3.5-2.135,15.111,15.111,0,0,0-4.9-.7H138.67v21.63h4.55a15.744,15.744,0,0,0,3.92-.42,5.969,5.969,0,0,0,2.765-1.575,9.335,9.335,0,0,0,1.96-3.15,38.6,38.6,0,0,0,1.575-5.145h.77v21.77h-.77q-.49-2.03-1.015-3.92a12.217,12.217,0,0,0-1.47-3.36,6.959,6.959,0,0,0-2.52-2.345,8.393,8.393,0,0,0-4.1-.875h-5.67V-.98H151.9a11.61,11.61,0,0,0,6.4-1.645,14.914,14.914,0,0,0,4.165-3.92,16.98,16.98,0,0,0,2.38-4.725,24.838,24.838,0,0,0,.98-4.06h.77V0H123.9Zm53.41-31.15a23.975,23.975,0,0,0,3.325-2.835,15.25,15.25,0,0,0,2.03-2.59,8.34,8.34,0,0,0,.98-2.205,7.1,7.1,0,0,0,.245-1.68,5.234,5.234,0,0,0-1.26-3.64,3.535,3.535,0,0,1-3.01,1.75,4.181,4.181,0,0,1-2.59-.98,3.338,3.338,0,0,1-1.26-2.8,3.779,3.779,0,0,1,1.225-2.8,4.2,4.2,0,0,1,3.045-1.19,4.721,4.721,0,0,1,2.415.63,6.466,6.466,0,0,1,1.855,1.61,6.716,6.716,0,0,1,1.155,2.31,9.526,9.526,0,0,1,.385,2.66,10.292,10.292,0,0,1-.84,4.025,19.269,19.269,0,0,1-2.03,3.675,17.682,17.682,0,0,1-2.59,2.94,22.318,22.318,0,0,1-2.45,1.96ZM190.61-9.8h.77a26.215,26.215,0,0,0,1.26,3.4,12.044,12.044,0,0,0,2.065,3.15A10.178,10.178,0,0,0,197.89-.91a10.41,10.41,0,0,0,4.55.91,6.313,6.313,0,0,0,3.99-1.365,5.293,5.293,0,0,0,1.75-4.445,4.525,4.525,0,0,0-1.365-3.745,10.686,10.686,0,0,0-3.185-1.715l-5.46-1.89q-1.05-.35-2.275-.875a8.247,8.247,0,0,1-2.275-1.47A7.169,7.169,0,0,1,191.9-17.92a9.224,9.224,0,0,1-.665-3.78,8.631,8.631,0,0,1,.77-3.64,9.414,9.414,0,0,1,2.1-2.94,9.388,9.388,0,0,1,3.185-1.96,11.31,11.31,0,0,1,4.025-.7,10.222,10.222,0,0,1,2.485.245q.945.245,1.645.49t1.26.49a3.3,3.3,0,0,0,1.33.245,1.222,1.222,0,0,0,1.12-.56h.77v7.98h-.77a30.093,30.093,0,0,0-1.12-2.975,11.891,11.891,0,0,0-1.505-2.555,6.1,6.1,0,0,0-2.17-1.75,6.889,6.889,0,0,0-3.045-.63,8.072,8.072,0,0,0-5.215,1.505,4.918,4.918,0,0,0-1.855,4.025,3.944,3.944,0,0,0,1.575,3.4A16.509,16.509,0,0,0,200.48-18.9l5.11,1.68a14.731,14.731,0,0,1,5.39,3.08,6.752,6.752,0,0,1,2.1,5.18,9.827,9.827,0,0,1-.735,3.71,9,9,0,0,1-2.17,3.185,11.057,11.057,0,0,1-3.5,2.205,12.458,12.458,0,0,1-4.725.84,11.987,11.987,0,0,1-2.835-.315Q197.82.35,196.735,0T194.74-.665a5.166,5.166,0,0,0-1.68-.315,1.647,1.647,0,0,0-1.12.315,2.928,2.928,0,0,0-.56.665h-.77Zm62.23-15.26a27.852,27.852,0,0,0,2.94.42q1.54.14,2.73.14,5.18,0,8.085-3.045t2.9-9.2a21.436,21.436,0,0,0-.7-5.95,8.427,8.427,0,0,0-2.2-3.815,8.243,8.243,0,0,0-3.92-2,25.882,25.882,0,0,0-5.775-.56q-1.33,0-2.415.07t-1.645.14ZM238.07-.98h7.77V-48.86h-7.77v-.98h13.16q.98,0,1.96-.035t1.96-.1q.98,0,1.925-.035T259-50.05a27.463,27.463,0,0,1,7.385.945,18.942,18.942,0,0,1,5.88,2.695,13.023,13.023,0,0,1,3.885,4.2,10.808,10.808,0,0,1,1.4,5.46,9.966,9.966,0,0,1-1.61,5.6,13.9,13.9,0,0,1-4.27,4.13,21.613,21.613,0,0,1-6.2,2.59,29.51,29.51,0,0,1-7.385.91,23.214,23.214,0,0,1-2.52-.175q-1.54-.175-2.73-.385V-.98h7.77V0H238.07Zm47.81-14a32.424,32.424,0,0,0,.77,7.91,12.165,12.165,0,0,0,2.03,4.515A5.848,5.848,0,0,0,291.62-.49a12.691,12.691,0,0,0,3.57.49,12.691,12.691,0,0,0,3.57-.49,5.848,5.848,0,0,0,2.94-2.065,12.165,12.165,0,0,0,2.03-4.515,32.424,32.424,0,0,0,.77-7.91,37.121,37.121,0,0,0-.56-7.035,13.188,13.188,0,0,0-1.715-4.62,6.618,6.618,0,0,0-2.9-2.555,10.192,10.192,0,0,0-4.13-.77,10.192,10.192,0,0,0-4.13.77,6.618,6.618,0,0,0-2.9,2.555,13.188,13.188,0,0,0-1.715,4.62A37.121,37.121,0,0,0,285.88-14.98Zm-7,0a13.776,13.776,0,0,1,1.505-6.37,17.7,17.7,0,0,1,3.85-5.075,17.723,17.723,0,0,1,5.25-3.325,14.981,14.981,0,0,1,5.7-1.19,14.981,14.981,0,0,1,5.705,1.19,17.723,17.723,0,0,1,5.25,3.325,17.7,17.7,0,0,1,3.85,5.075,13.776,13.776,0,0,1,1.505,6.37,14.087,14.087,0,0,1-1.4,6.2,17.365,17.365,0,0,1-3.675,5.075A17.445,17.445,0,0,1,301.21-.28,15.144,15.144,0,0,1,295.19.98a15.144,15.144,0,0,1-6.02-1.26,17.445,17.445,0,0,1-5.215-3.43,17.365,17.365,0,0,1-3.675-5.075A14.087,14.087,0,0,1,278.88-14.98Zm37.66,14h5.39V-29.05h-5.39v-.98h11.27v7.07h.14a14.252,14.252,0,0,1,.91-2.38,10.392,10.392,0,0,1,1.75-2.555,9.967,9.967,0,0,1,2.7-2.065,8.013,8.013,0,0,1,3.815-.84,6.892,6.892,0,0,1,2.8.525,6.049,6.049,0,0,1,1.96,1.33A4.89,4.89,0,0,1,343-27.09a6.606,6.606,0,0,1,.35,2.1q0,2.31-1.05,3.08a4.031,4.031,0,0,1-2.45.77q-3.08,0-3.08-1.96a3.034,3.034,0,0,1,.14-1.015q.14-.385.315-.77a6.306,6.306,0,0,0,.315-.875,5.376,5.376,0,0,0,.14-1.4q0-2.24-2.45-2.24a4.338,4.338,0,0,0-2.38.84,8.776,8.776,0,0,0-2.345,2.45,15.393,15.393,0,0,0-1.82,3.885,16.955,16.955,0,0,0-.735,5.215V-.98h6.09V0h-17.5Zm27.79-29.05h5.39v-9.03q.56.21,1.05.35a6.919,6.919,0,0,0,1.68.14,6.027,6.027,0,0,0,1.82-.245,4.567,4.567,0,0,0,1.47-.805v9.59h9.94v.98h-9.94V-6.16a10.876,10.876,0,0,0,.385,3.185,4.81,4.81,0,0,0,1.015,1.89,3.038,3.038,0,0,0,1.365.875A5.211,5.211,0,0,0,359.94,0,4.921,4.921,0,0,0,363.9-1.785a8.645,8.645,0,0,0,1.925-4.1l.98.35a16.284,16.284,0,0,1-.63,2.03,7.079,7.079,0,0,1-1.3,2.135A6.8,6.8,0,0,1,362.6.315a8.143,8.143,0,0,1-3.5.665q-5.25,0-7.315-2.03a7.686,7.686,0,0,1-2.065-5.74V-29.05h-5.39ZM368.41-.98h5.39V-29.05h-5.39v-.98h5.39v-3.71a31.644,31.644,0,0,1,.245-4.235,20.052,20.052,0,0,1,.665-3.15,12.607,12.607,0,0,1,.98-2.38,11.765,11.765,0,0,1,1.26-1.855,17.719,17.719,0,0,1,4.55-4.025,10.738,10.738,0,0,1,5.81-1.715,10.546,10.546,0,0,1,3.955.665,8.659,8.659,0,0,1,2.7,1.645,6.288,6.288,0,0,1,1.54,2.135,5.376,5.376,0,0,1,.49,2.065,4.234,4.234,0,0,1-.77,2.45,2.916,2.916,0,0,1-2.59,1.12,6.131,6.131,0,0,1-2.065-.42,1.733,1.733,0,0,1-1.155-1.82,3.621,3.621,0,0,1,.665-2.135,3.621,3.621,0,0,0,.665-2.135,2.022,2.022,0,0,0-1.26-2.065,6.674,6.674,0,0,0-2.59-.525,6.3,6.3,0,0,0-4.97,2.52q-2.1,2.52-2.1,7.84v9.73h8.68v.98h-8.68V-.98h6.37V0H368.41Zm30.8-14a32.424,32.424,0,0,0,.77,7.91,12.165,12.165,0,0,0,2.03,4.515A5.848,5.848,0,0,0,404.95-.49a12.691,12.691,0,0,0,3.57.49,12.691,12.691,0,0,0,3.57-.49,5.848,5.848,0,0,0,2.94-2.065,12.165,12.165,0,0,0,2.03-4.515,32.424,32.424,0,0,0,.77-7.91,37.121,37.121,0,0,0-.56-7.035,13.188,13.188,0,0,0-1.715-4.62,6.618,6.618,0,0,0-2.9-2.555,10.192,10.192,0,0,0-4.13-.77,10.192,10.192,0,0,0-4.13.77,6.618,6.618,0,0,0-2.9,2.555,13.188,13.188,0,0,0-1.715,4.62A37.121,37.121,0,0,0,399.21-14.98Zm-7,0a13.776,13.776,0,0,1,1.505-6.37,17.7,17.7,0,0,1,3.85-5.075,17.723,17.723,0,0,1,5.25-3.325,14.981,14.981,0,0,1,5.7-1.19,14.981,14.981,0,0,1,5.705,1.19,17.723,17.723,0,0,1,5.25,3.325,17.7,17.7,0,0,1,3.85,5.075,13.776,13.776,0,0,1,1.5,6.37,14.087,14.087,0,0,1-1.4,6.2,17.365,17.365,0,0,1-3.675,5.075A17.445,17.445,0,0,1,414.54-.28,15.144,15.144,0,0,1,408.52.98,15.144,15.144,0,0,1,402.5-.28a17.445,17.445,0,0,1-5.215-3.43,17.365,17.365,0,0,1-3.675-5.075A14.087,14.087,0,0,1,392.21-14.98Zm37.73,14h5.39V-49.49h-5.39v-.98h11.41V-.98h5.39V0h-16.8Zm25.27-45.36a3.576,3.576,0,0,1,1.085-2.625,3.576,3.576,0,0,1,2.625-1.085,3.576,3.576,0,0,1,2.625,1.085,3.576,3.576,0,0,1,1.085,2.625,3.576,3.576,0,0,1-1.085,2.625,3.576,3.576,0,0,1-2.625,1.085,3.576,3.576,0,0,1-2.625-1.085A3.576,3.576,0,0,1,455.21-46.34ZM450.66-.98h5.39V-29.05h-5.39v-.98h11.41V-.98h5.39V0h-16.8Zm28.91-14a32.424,32.424,0,0,0,.77,7.91,12.165,12.165,0,0,0,2.03,4.515A5.848,5.848,0,0,0,485.31-.49a12.691,12.691,0,0,0,3.57.49,12.691,12.691,0,0,0,3.57-.49,5.848,5.848,0,0,0,2.94-2.065,12.165,12.165,0,0,0,2.03-4.515,32.424,32.424,0,0,0,.77-7.91,37.121,37.121,0,0,0-.56-7.035,13.188,13.188,0,0,0-1.715-4.62,6.618,6.618,0,0,0-2.9-2.555,10.192,10.192,0,0,0-4.13-.77,10.192,10.192,0,0,0-4.13.77,6.618,6.618,0,0,0-2.9,2.555,13.188,13.188,0,0,0-1.715,4.62A37.121,37.121,0,0,0,479.57-14.98Zm-7,0a13.776,13.776,0,0,1,1.505-6.37,17.7,17.7,0,0,1,3.85-5.075,17.723,17.723,0,0,1,5.25-3.325,14.981,14.981,0,0,1,5.7-1.19,14.981,14.981,0,0,1,5.705,1.19,17.723,17.723,0,0,1,5.25,3.325,17.7,17.7,0,0,1,3.85,5.075,13.776,13.776,0,0,1,1.505,6.37,14.087,14.087,0,0,1-1.4,6.2,17.365,17.365,0,0,1-3.675,5.075A17.445,17.445,0,0,1,494.9-.28,15.144,15.144,0,0,1,488.88.98a15.144,15.144,0,0,1-6.02-1.26,17.445,17.445,0,0,1-5.215-3.43,17.365,17.365,0,0,1-3.675-5.075A14.087,14.087,0,0,1,472.57-14.98ZM520.8-49.84h21.07v.98h-7.28l14.42,40.6h.14l9.31-25.83-5.32-14.77h-5.88v-.98h21v.98h-7.63l14.42,40.6h.14l14.7-40.6H582.4v-.98h14.98v.98h-6.3L572.95,1.05H571.2l-12.04-33.6h-.14L546.84,1.05h-1.89L527.1-48.86h-6.3Zm93.52,31.5a12.926,12.926,0,0,0,.14-1.82v-1.75a14.118,14.118,0,0,0-.455-3.92,6.374,6.374,0,0,0-1.26-2.45,4.452,4.452,0,0,0-1.96-1.3,7.81,7.81,0,0,0-2.485-.385,7.389,7.389,0,0,0-3.92.945,6.961,6.961,0,0,0-2.45,2.555,13.163,13.163,0,0,0-1.365,3.71,29.129,29.129,0,0,0-.6,4.41Zm-14.42.98q0,.7-.035,1.435t-.035,1.855a43.787,43.787,0,0,0,.28,4.83,14.509,14.509,0,0,0,1.225,4.55,8.48,8.48,0,0,0,2.8,3.36A8.3,8.3,0,0,0,609.07,0a12.269,12.269,0,0,0,5.075-.91,9.339,9.339,0,0,0,3.15-2.2A9.548,9.548,0,0,0,619.01-5.74q.56-1.33.84-2.17l1.05.21a20.109,20.109,0,0,1-.805,2.2,10.141,10.141,0,0,1-1.89,2.87,11.46,11.46,0,0,1-3.5,2.52A12.95,12.95,0,0,1,609,.98a18.234,18.234,0,0,1-6.475-1.12,14.8,14.8,0,0,1-5.145-3.22,14.55,14.55,0,0,1-3.36-5,16.934,16.934,0,0,1-1.19-6.475,15.261,15.261,0,0,1,1.225-5.985,16.914,16.914,0,0,1,3.36-5.145,16.835,16.835,0,0,1,5.005-3.605,14.159,14.159,0,0,1,6.16-1.365,14.118,14.118,0,0,1,4.2.7,12.367,12.367,0,0,1,4.165,2.275,12.5,12.5,0,0,1,3.22,4.165,14.326,14.326,0,0,1,1.295,6.44Zm55.65,1.33a42.876,42.876,0,0,0-.35-5.775,14.7,14.7,0,0,0-1.225-4.375,6.54,6.54,0,0,0-2.45-2.8,7.507,7.507,0,0,0-4.025-.98,8.907,8.907,0,0,0-4.27.91,8.281,8.281,0,0,0-2.73,2.31,8.667,8.667,0,0,0-1.225,2.1,13.558,13.558,0,0,0-.735,2.66,28.249,28.249,0,0,0-.385,3.535q-.105,1.995-.1,4.725a33.651,33.651,0,0,0,.35,4.76,14.746,14.746,0,0,0,1.33,4.445,8.508,8.508,0,0,0,2.765,3.255A8.032,8.032,0,0,0,647.22,0a8.1,8.1,0,0,0,4.55-1.12,6.758,6.758,0,0,0,2.52-3.22,16.924,16.924,0,0,0,1.05-5.075Q655.55-12.39,655.55-16.03ZM626.64-.98h5.39V-49.49h-5.39v-.98h11.41v26.04h.14a10.235,10.235,0,0,1,3.36-4.62,9.721,9.721,0,0,1,6.23-1.89,12.785,12.785,0,0,1,5.67,1.3,16.209,16.209,0,0,1,4.69,3.43,16.174,16.174,0,0,1,3.22,5,15.564,15.564,0,0,1,1.19,6.02,15.6,15.6,0,0,1-1.225,6.125A17.26,17.26,0,0,1,658-3.92a16.294,16.294,0,0,1-4.865,3.57A13.316,13.316,0,0,1,647.29.98a9.1,9.1,0,0,1-4.025-.805,9.673,9.673,0,0,1-2.73-1.925,8.63,8.63,0,0,1-1.645-2.31,19.157,19.157,0,0,1-.84-2.03h-.14V0H626.64ZM670.11-9.8h.77a26.21,26.21,0,0,0,1.26,3.4,12.043,12.043,0,0,0,2.065,3.15A10.178,10.178,0,0,0,677.39-.91a10.41,10.41,0,0,0,4.55.91,6.313,6.313,0,0,0,3.99-1.365,5.293,5.293,0,0,0,1.75-4.445,4.525,4.525,0,0,0-1.365-3.745,10.686,10.686,0,0,0-3.185-1.715l-5.46-1.89q-1.05-.35-2.275-.875a8.247,8.247,0,0,1-2.275-1.47,7.168,7.168,0,0,1-1.715-2.415,9.223,9.223,0,0,1-.665-3.78,8.63,8.63,0,0,1,.77-3.64,9.415,9.415,0,0,1,2.1-2.94,9.389,9.389,0,0,1,3.185-1.96,11.31,11.31,0,0,1,4.025-.7,10.222,10.222,0,0,1,2.485.245q.945.245,1.645.49t1.26.49a3.3,3.3,0,0,0,1.33.245,1.222,1.222,0,0,0,1.12-.56h.77v7.98h-.77a30.109,30.109,0,0,0-1.12-2.975,11.888,11.888,0,0,0-1.505-2.555,6.1,6.1,0,0,0-2.17-1.75,6.889,6.889,0,0,0-3.045-.63,8.072,8.072,0,0,0-5.215,1.505,4.918,4.918,0,0,0-1.855,4.025,3.944,3.944,0,0,0,1.575,3.4A16.509,16.509,0,0,0,679.98-18.9l5.11,1.68a14.73,14.73,0,0,1,5.39,3.08,6.752,6.752,0,0,1,2.1,5.18,9.826,9.826,0,0,1-.735,3.71,9,9,0,0,1-2.17,3.185,11.057,11.057,0,0,1-3.5,2.205,12.458,12.458,0,0,1-4.725.84,11.988,11.988,0,0,1-2.835-.315Q677.32.35,676.235,0T674.24-.665a5.166,5.166,0,0,0-1.68-.315,1.647,1.647,0,0,0-1.12.315,2.928,2.928,0,0,0-.56.665h-.77Zm32.41-36.54a3.576,3.576,0,0,1,1.085-2.625,3.576,3.576,0,0,1,2.625-1.085,3.576,3.576,0,0,1,2.625,1.085,3.576,3.576,0,0,1,1.085,2.625,3.576,3.576,0,0,1-1.085,2.625,3.576,3.576,0,0,1-2.625,1.085,3.576,3.576,0,0,1-2.625-1.085A3.576,3.576,0,0,1,702.52-46.34ZM697.97-.98h5.39V-29.05h-5.39v-.98h11.41V-.98h5.39V0h-16.8Zm19.95-29.05h5.39v-9.03q.56.21,1.05.35a6.919,6.919,0,0,0,1.68.14,6.027,6.027,0,0,0,1.82-.245,4.566,4.566,0,0,0,1.47-.805v9.59h9.94v.98h-9.94V-6.16a10.876,10.876,0,0,0,.385,3.185,4.81,4.81,0,0,0,1.015,1.89,3.037,3.037,0,0,0,1.365.875A5.21,5.21,0,0,0,733.53,0a4.921,4.921,0,0,0,3.955-1.785,8.644,8.644,0,0,0,1.925-4.1l.98.35a16.282,16.282,0,0,1-.63,2.03,7.081,7.081,0,0,1-1.3,2.135A6.8,6.8,0,0,1,736.19.315a8.144,8.144,0,0,1-3.5.665q-5.25,0-7.315-2.03a7.686,7.686,0,0,1-2.065-5.74V-29.05h-5.39Zm46.76,11.69a12.926,12.926,0,0,0,.14-1.82v-1.75a14.118,14.118,0,0,0-.455-3.92,6.374,6.374,0,0,0-1.26-2.45,4.452,4.452,0,0,0-1.96-1.3,7.81,7.81,0,0,0-2.485-.385,7.389,7.389,0,0,0-3.92.945,6.961,6.961,0,0,0-2.45,2.555,13.163,13.163,0,0,0-1.365,3.71,29.129,29.129,0,0,0-.6,4.41Zm-14.42.98q0,.7-.035,1.435t-.035,1.855a43.787,43.787,0,0,0,.28,4.83A14.509,14.509,0,0,0,751.7-4.69a8.48,8.48,0,0,0,2.8,3.36A8.3,8.3,0,0,0,759.43,0a12.269,12.269,0,0,0,5.075-.91,9.339,9.339,0,0,0,3.15-2.2A9.548,9.548,0,0,0,769.37-5.74q.56-1.33.84-2.17l1.05.21a20.109,20.109,0,0,1-.805,2.2,10.141,10.141,0,0,1-1.89,2.87,11.46,11.46,0,0,1-3.5,2.52A12.95,12.95,0,0,1,759.36.98a18.234,18.234,0,0,1-6.475-1.12,14.8,14.8,0,0,1-5.145-3.22,14.55,14.55,0,0,1-3.36-5,16.934,16.934,0,0,1-1.19-6.475,15.261,15.261,0,0,1,1.225-5.985,16.914,16.914,0,0,1,3.36-5.145,16.835,16.835,0,0,1,5.005-3.605,14.159,14.159,0,0,1,6.16-1.365,14.118,14.118,0,0,1,4.2.7,12.367,12.367,0,0,1,4.165,2.275,12.5,12.5,0,0,1,3.22,4.165,14.326,14.326,0,0,1,1.295,6.44Z" transform="translate(63 194)"/></g></svg>